<svg viewBox="0 0 1045 576" xmlns="http://www.w3.org/2000/svg" xmlns:xlink="http://www.w3.org/1999/xlink"><linearGradient id="a" gradientUnits="userSpaceOnUse" x1="632.86" x2="673.04" y1="131.78" y2="171.96"><stop offset="0" stop-color="#7e77b6"/><stop offset="1" stop-color="#ef6876"/></linearGradient><linearGradient id="f" gradientTransform="rotate(-90 686.16 497.5)" x1="719.19" x2="757.87" xlink:href="#a" y1="445.45" y2="484.13"/><linearGradient id="g" gradientUnits="userSpaceOnUse" x1="221" x2="644" y1="297.13" y2="297.13"><stop offset="0" stop-color="#7e77b6"/><stop offset=".23" stop-color="#8477b6"/><stop offset=".53" stop-color="#9577b4"/><stop offset=".88" stop-color="#b078b2"/><stop offset=".98" stop-color="#ba78b1"/></linearGradient><linearGradient id="e" gradientUnits="userSpaceOnUse" x1="640.5" x2="947" y1="298.5" y2="298.5"><stop offset="0" stop-color="#7e77b6"/><stop offset="1" stop-color="#b778b1"/></linearGradient><linearGradient id="b" gradientTransform="translate(-5709.49 -287.2)" gradientUnits="userSpaceOnUse" x1="6501.78" x2="6501.78" y1="605.1" y2="598.23"><stop offset="0" stop-color="#8077b7"/><stop offset="1" stop-color="#8077b7"/></linearGradient><linearGradient id="h" x1="6430.94" x2="6572.63" xlink:href="#b" y1="601.67" y2="601.67"/><linearGradient id="i" gradientTransform="translate(-5838.31 -374.84)" x1="6583.06" x2="6588.1" xlink:href="#b" y1="722.68" y2="722.68"/><linearGradient id="c" gradientUnits="userSpaceOnUse" x1="704.08" x2="881.45" y1="347.76" y2="347.76"><stop offset="0" stop-color="#d9e4f4"/><stop offset="1" stop-color="#edf2f8"/></linearGradient><linearGradient id="d" gradientUnits="userSpaceOnUse" x1="704.08" x2="881.45" y1="348.04" y2="348.04"><stop offset="0" stop-color="#edf2f8"/><stop offset="1" stop-color="#d9e4f4"/></linearGradient><linearGradient id="j" x1="792.29" x2="792.29" xlink:href="#b" y1="387.36" y2="380.49"/><linearGradient id="k" x1="721.44" x2="863.14" xlink:href="#b" y1="383.92" y2="383.92"/><linearGradient id="l" gradientTransform="translate(-5892.7 -428.95)" x1="6637.31" x2="6642.34" xlink:href="#b" y1="722.54" y2="722.54"/><linearGradient id="m" x1="703.81" x2="881.31" xlink:href="#c" y1="293.51" y2="293.51"/><linearGradient id="n" x1="703.94" x2="881.31" xlink:href="#d" y1="293.53" y2="293.53"/><linearGradient id="o" gradientTransform="translate(-5946.77 -482.75)" x1="6691.24" x2="6696.28" xlink:href="#b" y1="722.41" y2="722.41"/><linearGradient id="p" x1="703.81" x2="881.18" xlink:href="#c" y1="239.58" y2="239.58"/><linearGradient id="q" x1="704.08" x2="881.45" xlink:href="#d" y1="239.11" y2="239.11"/><linearGradient id="r" x1="854.76" x2="858.69" xlink:href="#b" y1="240.36" y2="240.36"/><linearGradient id="s" x1="863.15" x2="867.08" xlink:href="#b" y1="240.36" y2="240.36"/><linearGradient id="t" x1="829.59" x2="833.52" xlink:href="#b" y1="240.36" y2="240.36"/><linearGradient id="u" x1="821.33" x2="825.27" xlink:href="#b" y1="240.36" y2="240.36"/><linearGradient id="v" x1="846.37" x2="850.3" xlink:href="#b" y1="240.36" y2="240.36"/><linearGradient id="w" x1="837.98" x2="841.91" xlink:href="#b" y1="240.36" y2="240.36"/><linearGradient id="x" x1="850.57" x2="854.5" xlink:href="#b" y1="246.97" y2="246.97"/><linearGradient id="y" x1="858.95" x2="862.89" xlink:href="#b" y1="246.97" y2="246.97"/><linearGradient id="z" x1="825.4" x2="829.33" xlink:href="#b" y1="246.97" y2="246.97"/><linearGradient id="A" x1="842.18" x2="846.11" xlink:href="#b" y1="246.97" y2="246.97"/><linearGradient id="B" x1="833.79" x2="837.72" xlink:href="#b" y1="246.97" y2="246.97"/><linearGradient id="C" x1="850.57" x2="854.5" xlink:href="#b" y1="234.07" y2="234.07"/><linearGradient id="D" x1="858.95" x2="862.89" xlink:href="#b" y1="234.07" y2="234.07"/><linearGradient id="E" x1="825.4" x2="829.33" xlink:href="#b" y1="234.07" y2="234.07"/><linearGradient id="F" x1="842.18" x2="846.11" xlink:href="#b" y1="234.07" y2="234.07"/><linearGradient id="G" x1="833.79" x2="837.72" xlink:href="#b" y1="234.07" y2="234.07"/><linearGradient id="H" x1="854.69" x2="858.62" xlink:href="#b" y1="293.1" y2="293.1"/><linearGradient id="I" x1="863.08" x2="867.01" xlink:href="#b" y1="293.1" y2="293.1"/><linearGradient id="J" x1="829.53" x2="833.46" xlink:href="#b" y1="293.1" y2="293.1"/><linearGradient id="K" x1="821.27" x2="825.2" xlink:href="#b" y1="293.1" y2="293.1"/><linearGradient id="L" x1="846.3" x2="850.24" xlink:href="#b" y1="293.1" y2="293.1"/><linearGradient id="M" x1="837.92" x2="841.85" xlink:href="#b" y1="293.1" y2="293.1"/><linearGradient id="N" x1="850.5" x2="854.43" xlink:href="#b" y1="299.71" y2="299.71"/><linearGradient id="O" x1="858.89" x2="862.82" xlink:href="#b" y1="299.71" y2="299.71"/><linearGradient id="P" x1="825.33" x2="829.26" xlink:href="#b" y1="299.71" y2="299.71"/><linearGradient id="Q" x1="842.11" x2="846.04" xlink:href="#b" y1="299.71" y2="299.71"/><linearGradient id="R" x1="833.72" x2="837.65" xlink:href="#b" y1="299.71" y2="299.71"/><linearGradient id="S" x1="850.5" x2="854.43" xlink:href="#b" y1="286.81" y2="286.81"/><linearGradient id="T" x1="858.89" x2="862.82" xlink:href="#b" y1="286.81" y2="286.81"/><linearGradient id="U" x1="825.33" x2="829.26" xlink:href="#b" y1="286.81" y2="286.81"/><linearGradient id="V" x1="842.11" x2="846.04" xlink:href="#b" y1="286.81" y2="286.81"/><linearGradient id="W" x1="833.72" x2="837.65" xlink:href="#b" y1="286.81" y2="286.81"/><linearGradient id="X" x1="854.63" x2="858.56" xlink:href="#b" y1="347.35" y2="347.35"/><linearGradient id="Y" x1="863.02" x2="866.95" xlink:href="#b" y1="347.35" y2="347.35"/><linearGradient id="Z" x1="829.46" x2="833.39" xlink:href="#b" y1="347.35" y2="347.35"/><linearGradient id="aa" x1="821.2" x2="825.13" xlink:href="#b" y1="347.35" y2="347.35"/><linearGradient id="ab" x1="846.24" x2="850.17" xlink:href="#b" y1="347.35" y2="347.35"/><linearGradient id="ac" x1="837.85" x2="841.78" xlink:href="#b" y1="347.35" y2="347.35"/><linearGradient id="ad" x1="850.43" x2="854.36" xlink:href="#b" y1="353.95" y2="353.95"/><linearGradient id="ae" x1="858.82" x2="862.75" xlink:href="#b" y1="353.95" y2="353.95"/><linearGradient id="af" x1="825.27" x2="829.2" xlink:href="#b" y1="353.95" y2="353.95"/><linearGradient id="ag" x1="842.04" x2="845.98" xlink:href="#b" y1="353.95" y2="353.95"/><linearGradient id="ah" x1="833.65" x2="837.59" xlink:href="#b" y1="353.95" y2="353.95"/><linearGradient id="ai" x1="850.43" x2="854.36" xlink:href="#b" y1="341.05" y2="341.05"/><linearGradient id="aj" x1="858.82" x2="862.75" xlink:href="#b" y1="341.05" y2="341.05"/><linearGradient id="ak" x1="825.27" x2="829.2" xlink:href="#b" y1="341.05" y2="341.05"/><linearGradient id="al" x1="842.04" x2="845.98" xlink:href="#b" y1="341.05" y2="341.05"/><linearGradient id="am" x1="833.65" x2="837.59" xlink:href="#b" y1="341.05" y2="341.05"/><linearGradient id="an" x1="127.9" x2="273.9" xlink:href="#e" y1="297.13" y2="297.13"/><linearGradient id="ao" x1="537.66" x2="622" xlink:href="#b" y1="329.79" y2="329.79"/><linearGradient id="ap" gradientTransform="rotate(180 554.83 1086.785)" x1="733.66" x2="818" xlink:href="#b" y1="1907.79" y2="1907.79"/><linearGradient id="aq" gradientUnits="userSpaceOnUse" x1="401.9" x2="504.98" y1="282.04" y2="282.04"><stop offset="0" stop-color="#76c2df"/><stop offset="1" stop-color="#83caa6"/></linearGradient><linearGradient id="ar" x1="813" x2="904" xlink:href="#b" y1="353.5" y2="353.5"/><linearGradient id="as" x1="837.74" x2="879.26" xlink:href="#b" y1="353.5" y2="353.5"/><path d="M673.04 171.96l-40.18-40.18z" fill="#f26a75" stroke="url(#a)" stroke-miterlimit="10" stroke-width="5"/><path d="M671.67 424.67l-38.68 38.68z" fill="#f26a75" stroke="url(#f)" stroke-miterlimit="10" stroke-width="5"/><path d="M221 281.63h423v31H221z" fill="url(#g)"/><circle cx="793.75" cy="298.5" fill="#fff" r="149.25" stroke="url(#e)" stroke-miterlimit="10" stroke-width="8"/><path d="M703.81 275.66h177.37v46.12H703.81zM704.21 329.21h177.37v46.12H704.21z" fill="#8077b7"/><rect fill="url(#b)" height="6.87" rx="3.44" stroke="url(#h)" stroke-miterlimit="10" stroke-width="3" transform="rotate(-90 792.29 314.46)" width="138.7" x="722.94" y="311.02"/><rect fill="#bfcce2" height="33.81" rx="3.7" width="190.2" x="697.8" y="330.87"/><rect fill="url(#i)" height="35.69" rx="2.52" transform="rotate(-90 747.265 347.835)" width="5.04" x="744.75" y="329.99"/><path d="M704.08 324.7h177.37v46.12H704.08z" fill="url(#c)"/><path d="M704.08 330.87h177.37v34.35H704.08z" fill="url(#d)"/><rect fill="url(#j)" height="6.87" rx="3.44" stroke="url(#k)" stroke-miterlimit="10" stroke-width="3" width="138.7" x="722.94" y="380.49"/><rect fill="#bfcce2" height="33.81" rx="3.7" width="190.2" x="697.66" y="276.62"/><rect fill="url(#l)" height="35.69" rx="2.52" transform="rotate(-90 747.13 293.59)" width="5.04" x="744.61" y="275.75"/><path d="M703.81 270.45h177.51v46.12H703.81z" fill="url(#m)"/><path d="M703.94 276.62h177.37v33.81H703.94z" fill="url(#n)"/><rect fill="#bfcce2" height="33.81" rx="3.7" width="190.2" x="697.53" y="222.69"/><rect fill="url(#o)" height="35.69" rx="2.52" transform="rotate(-90 746.995 239.655)" width="5.04" x="744.47" y="221.81"/><path d="M703.81 221.72h177.37v46.12H703.81z" fill="#8077b7"/><path d="M703.81 216.52h177.37v46.12H703.81z" fill="url(#p)"/><path d="M704.08 221.72h177.37v34.77H704.08z" fill="url(#q)"/><g opacity=".8"><rect fill="url(#r)" height="3.93" rx="1.97" width="3.93" x="854.76" y="238.4"/><rect fill="url(#s)" height="3.93" rx="1.97" width="3.93" x="863.15" y="238.4"/><rect fill="url(#t)" height="3.93" rx="1.97" width="3.93" x="829.59" y="238.4"/><rect fill="url(#u)" height="3.93" rx="1.97" width="3.93" x="821.33" y="238.4"/><rect fill="url(#v)" height="3.93" rx="1.97" width="3.93" x="846.37" y="238.4"/><rect fill="url(#w)" height="3.93" rx="1.97" width="3.93" x="837.98" y="238.4"/><rect fill="url(#x)" height="3.93" rx="1.97" width="3.93" x="850.57" y="245.01"/><rect fill="url(#y)" height="3.93" rx="1.97" width="3.93" x="858.95" y="245.01"/><rect fill="url(#z)" height="3.93" rx="1.97" width="3.93" x="825.4" y="245.01"/><rect fill="url(#A)" height="3.93" rx="1.97" width="3.93" x="842.18" y="245.01"/><rect fill="url(#B)" height="3.93" rx="1.97" width="3.93" x="833.79" y="245.01"/><rect fill="url(#C)" height="3.93" rx="1.97" width="3.93" x="850.57" y="232.11"/><rect fill="url(#D)" height="3.93" rx="1.97" width="3.93" x="858.95" y="232.11"/><rect fill="url(#E)" height="3.93" rx="1.97" width="3.93" x="825.4" y="232.11"/><rect fill="url(#F)" height="3.93" rx="1.97" width="3.93" x="842.18" y="232.11"/><rect fill="url(#G)" height="3.93" rx="1.97" width="3.93" x="833.79" y="232.11"/></g><g opacity=".8"><rect fill="url(#H)" height="3.93" rx="1.97" width="3.93" x="854.69" y="291.13"/><rect fill="url(#I)" height="3.93" rx="1.97" width="3.93" x="863.08" y="291.13"/><rect fill="url(#J)" height="3.93" rx="1.97" width="3.93" x="829.53" y="291.13"/><rect fill="url(#K)" height="3.93" rx="1.97" width="3.93" x="821.27" y="291.13"/><rect fill="url(#L)" height="3.93" rx="1.97" width="3.93" x="846.3" y="291.13"/><rect fill="url(#M)" height="3.93" rx="1.97" width="3.93" x="837.92" y="291.13"/><rect fill="url(#N)" height="3.93" rx="1.97" width="3.93" x="850.5" y="297.74"/><rect fill="url(#O)" height="3.93" rx="1.97" width="3.93" x="858.89" y="297.74"/><rect fill="url(#P)" height="3.93" rx="1.97" width="3.93" x="825.33" y="297.74"/><rect fill="url(#Q)" height="3.93" rx="1.97" width="3.93" x="842.11" y="297.74"/><rect fill="url(#R)" height="3.93" rx="1.97" width="3.93" x="833.72" y="297.74"/><rect fill="url(#S)" height="3.93" rx="1.97" width="3.93" x="850.5" y="284.84"/><rect fill="url(#T)" height="3.93" rx="1.97" width="3.93" x="858.89" y="284.84"/><rect fill="url(#U)" height="3.93" rx="1.97" width="3.93" x="825.33" y="284.84"/><rect fill="url(#V)" height="3.93" rx="1.97" width="3.93" x="842.11" y="284.84"/><rect fill="url(#W)" height="3.93" rx="1.97" width="3.93" x="833.72" y="284.84"/></g><g opacity=".8"><rect fill="url(#X)" height="3.93" rx="1.97" width="3.93" x="854.63" y="345.38"/><rect fill="url(#Y)" height="3.93" rx="1.97" width="3.93" x="863.02" y="345.38"/><rect fill="url(#Z)" height="3.93" rx="1.97" width="3.93" x="829.46" y="345.38"/><rect fill="url(#aa)" height="3.93" rx="1.97" width="3.93" x="821.2" y="345.38"/><rect fill="url(#ab)" height="3.93" rx="1.97" width="3.93" x="846.24" y="345.38"/><rect fill="url(#ac)" height="3.93" rx="1.97" width="3.93" x="837.85" y="345.38"/><rect fill="url(#ad)" height="3.93" rx="1.97" width="3.93" x="850.43" y="351.99"/><rect fill="url(#ae)" height="3.93" rx="1.97" width="3.93" x="858.82" y="351.99"/><rect fill="url(#af)" height="3.93" rx="1.97" width="3.93" x="825.27" y="351.99"/><rect fill="url(#ag)" height="3.93" rx="1.97" width="3.93" x="842.04" y="351.99"/><rect fill="url(#ah)" height="3.93" rx="1.97" width="3.93" x="833.65" y="351.99"/><rect fill="url(#ai)" height="3.93" rx="1.97" width="3.93" x="850.43" y="339.09"/><rect fill="url(#aj)" height="3.93" rx="1.97" width="3.93" x="858.82" y="339.09"/><rect fill="url(#ak)" height="3.93" rx="1.97" width="3.93" x="825.27" y="339.09"/><rect fill="url(#al)" height="3.93" rx="1.97" width="3.93" x="842.04" y="339.09"/><rect fill="url(#am)" height="3.93" rx="1.97" width="3.93" x="833.65" y="339.09"/></g><rect fill="#bfcce2" height="38.89" rx="3.44" transform="rotate(-90 771.465 293.705)" width="6.87" x="768.03" y="274.25"/><rect fill="#bfcce2" height="38.89" rx="3.44" transform="rotate(-90 771.465 238.705)" width="6.87" x="768.03" y="219.25"/><rect fill="#bfcce2" height="38.89" rx="3.44" transform="rotate(-90 771.485 349.055)" width="6.87" x="768.05" y="329.61"/><rect fill="#bfcce2" height="15.27" rx="3.33" transform="rotate(-90 727.365 348.825)" width="13.65" x="720.54" y="341.19"/><rect fill="#bfcce2" height="15.27" rx="3.33" transform="rotate(-90 728.365 293.825)" width="13.65" x="721.54" y="286.19"/><rect fill="#bfcce2" height="15.27" rx="3.33" transform="rotate(-90 728.365 238.825)" width="13.65" x="721.54" y="231.19"/><circle cx="200.9" cy="297.13" fill="url(#an)" r="73" stroke="#fff" stroke-miterlimit="10" stroke-width="7"/><path d="M221.44 312.33l.56-1.95a6.9 6.9 0 0 0-.71-6 6.13 6.13 0 0 0-4.86-2.41l-39.75-.5a.78.78 0 0 1-.71-1.05 1.06 1.06 0 0 1 .93-.71l40.11-.51c4.76-.22 9.91-4.08 11.72-8.79l2.28-6a1.32 1.32 0 0 0 .1-.51 2.85 2.85 0 0 0 0-.29 26.13 26.13 0 0 0-50.24-2.7 11.75 11.75 0 0 0-18.43 12.32 16.72 16.72 0 0 0-16.23 16.71 17.56 17.56 0 0 0 .18 2.42.78.78 0 0 0 .77.67h73.4a1 1 0 0 0 .88-.7zM234.68 284.83h-1.1a.58.58 0 0 0-.18 0 .64.64 0 0 0-.4.42l-1.56 5.4a6.91 6.91 0 0 0 .71 6 6.12 6.12 0 0 0 4.86 2.4l8.47.51a.77.77 0 0 1 .61.33.82.82 0 0 1 .09.72 1.06 1.06 0 0 1-.93.7l-8.8.51c-4.78.22-9.93 4.08-11.74 8.79l-.63 1.66a.47.47 0 0 0 .42.64h30.31a.82.82 0 0 0 .79-.58 21.76 21.76 0 0 0-20.92-27.61z" fill="#fff"/><circle cx="453.44" cy="301" fill="#fff" r="56.5" stroke="#fff" stroke-miterlimit="10" stroke-width="7"/><path d="M603.43 336l2 2.26 16-14.26a1.52 1.52 0 0 0-1-2.65h-82.77v3h78.84z" fill="url(#ao)"/><path d="M310.22 259.6l-2-2.27-16 14.26a1.52 1.52 0 0 0 1 2.65H376v-3h-78.84z" fill="url(#ap)"/><path d="M490.91 265.23v-27A26.27 26.27 0 0 0 464.67 212h-22.46A26.27 26.27 0 0 0 416 238.25v27a51.55 51.55 0 1 0 75 0zm-67-27a18.34 18.34 0 0 1 18.32-18.32h22.46A18.33 18.33 0 0 1 483 238.25v20.1a51.35 51.35 0 0 0-59.09 0zm29.53 106.27a43.92 43.92 0 1 1 44-44 44 44 0 0 1-44 44zm0-81.06a37.1 37.1 0 1 0 37.1 37.1 37.14 37.14 0 0 0-37.1-37.1zm4.91 42.56v13.88H452V306a10.35 10.35 0 1 1 6.32 0z" fill="url(#aq)"/><circle cx="858.5" cy="353.5" fill="#fff" r="43.5" stroke="url(#ar)" stroke-miterlimit="10" stroke-width="4"/><path d="M858.52 321.16c-14.86 0-22.68 11.34-20.38 23.91 2.3 12.72 20.38 40.77 20.38 40.77s18.55-29.73 20.39-40.62c2.14-13.02-5.67-24.06-20.39-24.06zm0 28.66a9.35 9.35 0 1 1 9.35-9.35 9.39 9.39 0 0 1-9.35 9.35z" fill="url(#as)"/><text fill="#8077b7" font-family="OpenSans-Semibold, Open Sans" font-size="23.19" font-weight="700" transform="translate(434.22 381.29)">TLS</text><circle cx="686.58" cy="408.5" fill="#fff" r="24.02"/><path d="M686.58 383a25.54 25.54 0 1 0 25.54 25.54A25.57 25.57 0 0 0 686.58 383zm0 47.54a22 22 0 1 1 22-22 22 22 0 0 1-22 21.96zm10.93-30.93l-8.93 8.93 8.93 8.93-2 2-8.93-8.93-8.93 8.93-2-2 8.93-8.93-8.93-8.93 2-2 8.93 8.93 8.93-8.93z" fill="#f26a75"/><circle cx="683.57" cy="182.5" fill="#fff" r="24.02"/><path d="M683.57 157a25.54 25.54 0 1 0 25.54 25.54A25.57 25.57 0 0 0 683.57 157zm0 47.54a22 22 0 1 1 22-22 22 22 0 0 1-22 21.96zm10.93-30.93l-8.93 8.93 8.93 8.93-2 2-8.93-8.93-8.93 8.93-2-2 8.93-8.93-8.93-8.93 2-2 8.93 8.93 8.93-8.93z" fill="#f26a75"/><path d="M162.67 383.31a3.3 3.3 0 0 0-2.69 1.21 6.35 6.35 0 0 0 0 6.73 3.32 3.32 0 0 0 2.72 1.14 7.34 7.34 0 0 0 1.5-.15c.48-.1 1-.24 1.5-.4v1.71a9.1 9.1 0 0 1-3.24.54 5.17 5.17 0 0 1-4.09-1.62 6.74 6.74 0 0 1-1.43-4.62 7.37 7.37 0 0 1 .7-3.31 4.9 4.9 0 0 1 2-2.17 6 6 0 0 1 3.08-.76 7.65 7.65 0 0 1 3.44.78l-.72 1.65a11.72 11.72 0 0 0-1.3-.51 4.52 4.52 0 0 0-1.47-.22zM170 393.92h-1.95V381H170zM181 389.31a5 5 0 0 1-1.15 3.51 4.12 4.12 0 0 1-3.22 1.27 4.39 4.39 0 0 1-2.27-.59 3.77 3.77 0 0 1-1.52-1.66 5.78 5.78 0 0 1-.53-2.53 4.92 4.92 0 0 1 1.15-3.48 4.12 4.12 0 0 1 3.22-1.26 4 4 0 0 1 3.16 1.29 5 5 0 0 1 1.16 3.45zm-6.68 0c0 2.12.78 3.18 2.35 3.18s2.32-1.06 2.32-3.18-.78-3.14-2.34-3.14a2 2 0 0 0-1.78.81 4.12 4.12 0 0 0-.59 2.33zM189.68 393.92l-.28-1.2h-.1a2.75 2.75 0 0 1-1.15 1 4 4 0 0 1-1.72.37 3.39 3.39 0 0 1-2.49-.83 3.46 3.46 0 0 1-.82-2.52v-6h2v5.66a2.44 2.44 0 0 0 .43 1.58 1.66 1.66 0 0 0 1.35.53 2.17 2.17 0 0 0 1.81-.74 4.08 4.08 0 0 0 .57-2.46v-4.57h2v9.18zM197.09 394.09a3.19 3.19 0 0 1-2.68-1.25 6.79 6.79 0 0 1 0-7 3.22 3.22 0 0 1 2.7-1.26 3.17 3.17 0 0 1 2.76 1.34h.1a10.77 10.77 0 0 1-.14-1.56V381h2v12.92h-1.53l-.34-1.2h-.09a3.13 3.13 0 0 1-2.78 1.37zm.52-1.58a2.12 2.12 0 0 0 1.75-.68 3.51 3.51 0 0 0 .57-2.19v-.28a4.06 4.06 0 0 0-.57-2.46 2.06 2.06 0 0 0-1.76-.73 1.81 1.81 0 0 0-1.6.83 4.29 4.29 0 0 0-.56 2.38 4.18 4.18 0 0 0 .54 2.33 1.83 1.83 0 0 0 1.63.8zM209.19 386.22H207v7.7h-2v-7.7h-1.51v-.92l1.51-.59v-.6a3.36 3.36 0 0 1 .76-2.41 3.11 3.11 0 0 1 2.34-.79 6.39 6.39 0 0 1 2 .34l-.51 1.48a4.64 4.64 0 0 0-1.38-.23 1.12 1.12 0 0 0-1 .41 2.06 2.06 0 0 0-.3 1.23v.6h2.24zm3.51 7.7h-1.95V381h1.95zM221.24 393.92l-.39-1.28h-.06a3.78 3.78 0 0 1-1.34 1.14 4.09 4.09 0 0 1-1.73.31 3 3 0 0 1-2.11-.73 2.77 2.77 0 0 1-.76-2.07 2.41 2.41 0 0 1 1.06-2.14 6 6 0 0 1 3.21-.79l1.58-.05v-.49a1.83 1.83 0 0 0-.41-1.32 1.65 1.65 0 0 0-1.27-.43 4.33 4.33 0 0 0-1.35.21 9.8 9.8 0 0 0-1.25.48l-.63-1.39a6.51 6.51 0 0 1 1.64-.59 7.27 7.27 0 0 1 1.67-.21 4 4 0 0 1 2.65.77 3 3 0 0 1 .89 2.4v6.18zm-2.9-1.33A2.41 2.41 0 0 0 220 392a2.16 2.16 0 0 0 .65-1.67v-.79h-1.18a4 4 0 0 0-2 .46 1.4 1.4 0 0 0-.62 1.25 1.27 1.27 0 0 0 .36 1 1.61 1.61 0 0 0 1.13.34zM230 384.57a4.38 4.38 0 0 1 1 .09l-.19 1.81a4.12 4.12 0 0 0-.86-.09 2.48 2.48 0 0 0-1.9.76 2.74 2.74 0 0 0-.73 2v4.8h-1.95v-9.18h1.53l.26 1.62h.1a3.67 3.67 0 0 1 1.19-1.31 2.82 2.82 0 0 1 1.55-.5zM236.7 394.09a4.46 4.46 0 0 1-3.35-1.25 4.78 4.78 0 0 1-1.21-3.44 5.25 5.25 0 0 1 1.12-3.54 3.88 3.88 0 0 1 3.08-1.29 3.79 3.79 0 0 1 2.88 1.11 4.21 4.21 0 0 1 1.05 3v1.06h-6.12a3 3 0 0 0 .72 2.05 2.53 2.53 0 0 0 1.92.72 7.32 7.32 0 0 0 1.52-.15 7.6 7.6 0 0 0 1.5-.51v1.58a6 6 0 0 1-1.44.49 9.22 9.22 0 0 1-1.67.17zm-.36-8a2 2 0 0 0-1.49.59 2.82 2.82 0 0 0-.66 1.72h4.16a2.5 2.5 0 0 0-.55-1.72 1.87 1.87 0 0 0-1.46-.63z" fill="#8077b7"/><path d="M623.8 144.05h-54a12.81 12.81 0 0 1-12.18-16.81l6.17-19.8A23.39 23.39 0 0 1 576 94.13h41.83a23.4 23.4 0 0 1 12 13.26l6.17 19.85a12.82 12.82 0 0 1-12.2 16.81zM624.28 85.76l-27.64-.06h-27.6l17.14-25.86A12.59 12.59 0 0 1 596.64 54h.36a13.08 13.08 0 0 1 10.72 6z" fill="#f26a75"/><path d="M625.08 87.28c0 1.64-.72 4.07-4 6.44l-22.35 16.68a2.74 2.74 0 0 1-1.6.53.7.7 0 0 1-.31 0 2.36 2.36 0 0 1-1.23-.48l-11.17-8.11-11.6-8.42v-.05c-3.44-2.37-4.16-4.85-4.16-6.54a6.65 6.65 0 0 1 1.54-4.17c2.72-3.45 8.17-5.48 13.87-6.65v6.45h25.7v-6.49c5.81 1.16 11.31 3.24 14 6.73a6.9 6.9 0 0 1 1.31 4.08z" fill="#fff" stroke="#f26a75" stroke-miterlimit="10" stroke-width="5"/><path d="M611.86 77.94v7.88c.46 5.75-6.89 17.4-15 17.4S581.8 92.08 581.8 85.94v-8a70.53 70.53 0 0 1 30.06 0z" fill="#fff" stroke="#f26a75" stroke-miterlimit="10" stroke-width="3"/><g fill="#f26a75"><path d="M583.76 83.84a2.71 2.71 0 0 0-2 2.14 4.83 4.83 0 0 0 0 1.08l4.19-3.52a10.15 10.15 0 0 0-2.19.3z"/><path d="M583.76 83.84a2.71 2.71 0 0 0-2 2.14 4.83 4.83 0 0 0 0 1.08l4.19-3.52a10.15 10.15 0 0 0-2.19.3z" opacity=".73"/><path d="M592.19 84.06a9.39 9.39 0 0 0-1.77-.38L582.87 90a2.61 2.61 0 0 0 .27.31 4.89 4.89 0 0 0 1.76 1.11 7.67 7.67 0 0 0 1.67.36h1.23a8.15 8.15 0 0 0 4.12-1.32 6.13 6.13 0 0 0 2-4.43 2.63 2.63 0 0 0-1.73-1.97z"/><path d="M592.19 84.06a9.39 9.39 0 0 0-1.77-.38L582.87 90a2.61 2.61 0 0 0 .27.31 4.89 4.89 0 0 0 1.76 1.11 7.67 7.67 0 0 0 1.67.36h1.23a8.15 8.15 0 0 0 4.12-1.32 6.13 6.13 0 0 0 2-4.43 2.63 2.63 0 0 0-1.73-1.97z" opacity=".73"/><path d="M587.81 83.51L582 88.38a4.62 4.62 0 0 0 .23.62l6.51-5.46c-.3-.02-.62-.03-.93-.03z"/><path d="M587.81 83.51L582 88.38a4.62 4.62 0 0 0 .23.62l6.51-5.46c-.3-.02-.62-.03-.93-.03z" opacity=".73"/><path d="M601.49 84.06a2.63 2.63 0 0 0-1.75 2 6 6 0 0 0 .36 1.94l5.32-4.47a14.64 14.64 0 0 0-3.93.53z"/><path d="M601.49 84.06a2.63 2.63 0 0 0-1.75 2 6 6 0 0 0 .36 1.94l5.32-4.47a14.64 14.64 0 0 0-3.93.53z" opacity=".73"/><path d="M607.27 83.52l-6.67 5.59a4.86 4.86 0 0 0 .35.53l7.24-6.07c-.29-.03-.6-.04-.92-.05z"/><path d="M607.27 83.52l-6.67 5.59a4.86 4.86 0 0 0 .35.53l7.24-6.07c-.29-.03-.6-.04-.92-.05z" opacity=".73"/><path d="M611.94 86a2.73 2.73 0 0 0-2-2.14h-.16l-8 6.69a8.17 8.17 0 0 0 4 1.31.19.19 0 0 1 .13 0h1.22a7.67 7.67 0 0 0 1.67-.36 4.77 4.77 0 0 0 1.75-1.11 5.68 5.68 0 0 0 1.39-4.39z"/><path d="M611.94 86a2.73 2.73 0 0 0-2-2.14h-.16l-8 6.69a8.17 8.17 0 0 0 4 1.31.19.19 0 0 1 .13 0h1.22a7.67 7.67 0 0 0 1.67-.36 4.77 4.77 0 0 0 1.75-1.11 5.68 5.68 0 0 0 1.39-4.39z" opacity=".73"/><path d="M585.93 83.54l-4.19 3.52a6.2 6.2 0 0 0 .27 1.32l5.8-4.87c-.65-.02-1.29-.01-1.88.03zM588.75 83.54L582.24 89a4.13 4.13 0 0 0 .63 1l7.55-6.34c-.52-.04-1.09-.09-1.67-.12zM605.42 83.52L600.1 88a7 7 0 0 0 .5 1.12l6.67-5.59c-.59-.03-1.22-.03-1.85-.01zM608.19 83.57L601 89.64a4 4 0 0 0 .81.84l8-6.69a9.12 9.12 0 0 0-1.62-.22zM581 84.28c.46 0 .92-.17.88-.29s-.46-.18-1-.15-.91.18-.88.3.44.19 1 .14zM612.77 83.84c-.51 0-.93 0-.92.17s.42.25.92.28 1-.05.93-.17-.42-.25-.93-.28z"/><path d="M604.65 82.74c-3.27.13-6.16 1.36-7.9 1.4s-3.61-1.12-7.9-1.4a41.93 41.93 0 0 0-9.66.51l.18 1.7a1.56 1.56 0 0 1 1.14 1c.35 1.2.23 3.32 1.49 4.57a6.21 6.21 0 0 0 4.48 1.84c1.48.07 4.82-.09 6.67-1.84a8.11 8.11 0 0 0 1.67-2.43c.46-1 .75-2.06 1.23-2.36a1.28 1.28 0 0 1 .7-.07 1.38 1.38 0 0 1 1 .22c.59.53.85 1.72 1.4 2.8a7.37 7.37 0 0 0 1.58 2c1.64 1.5 5.34 1.76 6.67 1.69a6 6 0 0 0 4.13-1.62 4.91 4.91 0 0 0 1-1.91c.32-1 .4-2.06.62-2.81a1.26 1.26 0 0 1 1.05-1l.27-1.77a54.08 54.08 0 0 0-9.82-.52zm-12.73 7.74a8.15 8.15 0 0 1-4.12 1.32h-1.23a7.67 7.67 0 0 1-1.67-.36 4.89 4.89 0 0 1-1.76-1.11 2.61 2.61 0 0 1-.27-.31 4.13 4.13 0 0 1-.63-1 4.62 4.62 0 0 1-.23-.62 6.2 6.2 0 0 1-.27-1.32 4.83 4.83 0 0 1 0-1.08 2.71 2.71 0 0 1 2-2.14 10.15 10.15 0 0 1 2.17-.3c.59 0 1.23-.05 1.88 0h.94c.58 0 1.15.08 1.67.14a9.39 9.39 0 0 1 1.77.38 2.65 2.65 0 0 1 1.75 2 6.13 6.13 0 0 1-2 4.4zM580 84.14c0-.12.37-.26.88-.3s.92 0 1 .15-.42.26-.88.29-1 0-1-.14zm32.79.15c-.5 0-.9-.13-.92-.28s.41-.2.92-.17.91.15.93.28-.48.19-.95.17zm-4 7.15a7.67 7.67 0 0 1-1.67.36h-1.22a.19.19 0 0 0-.13 0 8.17 8.17 0 0 1-4-1.31 4 4 0 0 1-.81-.84 4.86 4.86 0 0 1-.35-.53 7 7 0 0 1-.5-1.12 6 6 0 0 1-.36-1.94 2.63 2.63 0 0 1 1.75-2 14.64 14.64 0 0 1 3.93-.54h2.77a9.12 9.12 0 0 1 1.57.23h.16a2.71 2.71 0 0 1 2 2.14 5.68 5.68 0 0 1-1.41 4.35 4.77 4.77 0 0 1-1.74 1.2z"/></g><path d="M617 110h-40.34a2.1 2.1 0 0 0-2.16 2v29.36h44.63V112a2.1 2.1 0 0 0-2.13-2z" fill="#fff"/><path d="M630.8 501.05h-54a12.81 12.81 0 0 1-12.18-16.81l6.17-19.8A23.39 23.39 0 0 1 583 451.13h41.83a23.4 23.4 0 0 1 12 13.26l6.17 19.85a12.82 12.82 0 0 1-12.2 16.81zM631.28 442.76l-27.64-.06-27.6-.05 17.14-25.86a12.59 12.59 0 0 1 10.46-5.79h.36a13.08 13.08 0 0 1 10.72 6z" fill="#f26a75"/><path d="M632.08 444.28c0 1.64-.72 4.07-4 6.44l-22.35 16.68a2.74 2.74 0 0 1-1.6.53.7.7 0 0 1-.31-.05 2.36 2.36 0 0 1-1.23-.48l-11.17-8.11-11.6-8.42v-.1c-3.44-2.37-4.16-4.85-4.16-6.54a6.65 6.65 0 0 1 1.54-4.17c2.72-3.45 8.17-5.48 13.87-6.65v6.45l12.85-.05h12.85v-6.35c5.81 1.16 11.31 3.24 14 6.73a6.9 6.9 0 0 1 1.31 4.09z" fill="#fff" stroke="#f26a75" stroke-miterlimit="10" stroke-width="5"/><path d="M618.86 434.94v7.88c.46 5.75-6.89 17.4-15 17.4s-15.06-11.14-15.06-17.28v-8a70.53 70.53 0 0 1 30.06 0z" fill="#fff" stroke="#f26a75" stroke-miterlimit="10" stroke-width="3"/><path d="M590.76 440.84a2.71 2.71 0 0 0-2 2.14 4.83 4.83 0 0 0 0 1.08l4.19-3.52a10.15 10.15 0 0 0-2.19.3z" fill="#f26a75"/><path d="M590.76 440.84a2.71 2.71 0 0 0-2 2.14 4.83 4.83 0 0 0 0 1.08l4.19-3.52a10.15 10.15 0 0 0-2.19.3z" fill="#f26a75" opacity=".73"/><path d="M599.19 441.06a9.39 9.39 0 0 0-1.77-.38l-7.55 6.32a2.61 2.61 0 0 0 .27.31 4.89 4.89 0 0 0 1.76 1.11 7.67 7.67 0 0 0 1.67.36h1.23a8.15 8.15 0 0 0 4.12-1.32 6.13 6.13 0 0 0 2-4.43 2.63 2.63 0 0 0-1.73-1.97z" fill="#f26a75"/><path d="M599.19 441.06a9.39 9.39 0 0 0-1.77-.38l-7.55 6.32a2.61 2.61 0 0 0 .27.31 4.89 4.89 0 0 0 1.76 1.11 7.67 7.67 0 0 0 1.67.36h1.23a8.15 8.15 0 0 0 4.12-1.32 6.13 6.13 0 0 0 2-4.43 2.63 2.63 0 0 0-1.73-1.97z" fill="#f26a75" opacity=".73"/><path d="M594.81 440.51l-5.8 4.87a4.62 4.62 0 0 0 .23.62l6.51-5.46c-.31-.02-.63-.03-.94-.03z" fill="#f26a75"/><path d="M594.81 440.51l-5.8 4.87a4.62 4.62 0 0 0 .23.62l6.51-5.46c-.31-.02-.63-.03-.94-.03z" fill="#f26a75" opacity=".73"/><path d="M608.49 441.06a2.63 2.63 0 0 0-1.75 2 6 6 0 0 0 .36 1.94l5.32-4.47a14.64 14.64 0 0 0-3.93.53z" fill="#f26a75"/><path d="M608.49 441.06a2.63 2.63 0 0 0-1.75 2 6 6 0 0 0 .36 1.94l5.32-4.47a14.64 14.64 0 0 0-3.93.53z" fill="#f26a75" opacity=".73"/><path d="M614.27 440.52l-6.67 5.59a4.86 4.86 0 0 0 .35.53l7.24-6.07c-.29-.03-.6-.04-.92-.05z" fill="#f26a75"/><path d="M614.27 440.52l-6.67 5.59a4.86 4.86 0 0 0 .35.53l7.24-6.07c-.29-.03-.6-.04-.92-.05z" fill="#f26a75" opacity=".73"/><path d="M618.94 443a2.73 2.73 0 0 0-2-2.14h-.16l-8 6.69a8.17 8.17 0 0 0 4 1.31.19.19 0 0 1 .13 0h1.22a7.67 7.67 0 0 0 1.67-.36 4.77 4.77 0 0 0 1.75-1.11 5.68 5.68 0 0 0 1.39-4.39z" fill="#f26a75"/><path d="M618.94 443a2.73 2.73 0 0 0-2-2.14h-.16l-8 6.69a8.17 8.17 0 0 0 4 1.31.19.19 0 0 1 .13 0h1.22a7.67 7.67 0 0 0 1.67-.36 4.77 4.77 0 0 0 1.75-1.11 5.68 5.68 0 0 0 1.39-4.39z" fill="#f26a75" opacity=".73"/><path d="M592.93 440.54l-4.19 3.52a6.2 6.2 0 0 0 .27 1.32l5.8-4.87c-.65-.02-1.29-.01-1.88.03zM595.75 440.54l-6.51 5.46a4.13 4.13 0 0 0 .63 1l7.55-6.34c-.52-.04-1.09-.09-1.67-.12zM612.42 440.52L607.1 445a7 7 0 0 0 .5 1.12l6.67-5.59c-.59-.03-1.22-.03-1.85-.01zM615.19 440.57l-7.19 6.07a4 4 0 0 0 .81.84l8-6.69a9.12 9.12 0 0 0-1.62-.22zM588 441.28c.46 0 .92-.17.88-.29s-.46-.18-1-.15-.91.18-.88.3.44.19 1 .14zM619.77 440.84c-.51 0-.93.05-.92.17s.42.25.92.28 1-.05.93-.17-.42-.25-.93-.28z" fill="#f26a75"/><path d="M611.65 439.74c-3.27.13-6.16 1.36-7.9 1.4s-3.61-1.12-7.9-1.4a41.93 41.93 0 0 0-9.66.51l.18 1.7a1.56 1.56 0 0 1 1.14 1c.35 1.2.23 3.32 1.49 4.57a6.21 6.21 0 0 0 4.48 1.84c1.48.07 4.82-.09 6.67-1.84a8.11 8.11 0 0 0 1.67-2.43c.46-1 .75-2.06 1.23-2.36a1.28 1.28 0 0 1 .7-.07 1.38 1.38 0 0 1 1 .22c.59.53.85 1.72 1.4 2.8a7.37 7.37 0 0 0 1.58 2c1.64 1.5 5.34 1.76 6.67 1.69a6 6 0 0 0 4.13-1.62 4.91 4.91 0 0 0 1-1.91c.32-1 .4-2.06.62-2.81a1.26 1.26 0 0 1 1.05-1l.27-1.77a54.08 54.08 0 0 0-9.82-.52zm-12.73 7.74a8.15 8.15 0 0 1-4.12 1.32h-1.23a7.67 7.67 0 0 1-1.67-.36 4.89 4.89 0 0 1-1.76-1.11 2.61 2.61 0 0 1-.27-.31 4.13 4.13 0 0 1-.63-1 4.62 4.62 0 0 1-.23-.62 6.2 6.2 0 0 1-.27-1.32 4.83 4.83 0 0 1 0-1.08 2.71 2.71 0 0 1 2-2.14 10.15 10.15 0 0 1 2.17-.3c.59 0 1.23-.05 1.88 0h.94c.58 0 1.15.08 1.67.14a9.39 9.39 0 0 1 1.77.38 2.65 2.65 0 0 1 1.75 2 6.13 6.13 0 0 1-2 4.4zM587 441.14c0-.12.37-.26.88-.3s.92 0 1 .15-.42.26-.88.29-1 0-1-.14zm32.79.15c-.5 0-.9-.13-.92-.28s.41-.2.92-.17.91.15.93.28-.48.19-.95.17zm-4 7.15a7.67 7.67 0 0 1-1.67.36h-1.22a.19.19 0 0 0-.13 0 8.17 8.17 0 0 1-4-1.31 4 4 0 0 1-.81-.84 4.86 4.86 0 0 1-.35-.53 7 7 0 0 1-.5-1.12 6 6 0 0 1-.36-1.94 2.63 2.63 0 0 1 1.75-2 14.64 14.64 0 0 1 3.93-.54h1.85c.32 0 .63 0 .92.05a9.12 9.12 0 0 1 1.57.23h.16a2.71 2.71 0 0 1 2 2.14 5.68 5.68 0 0 1-1.41 4.35 4.77 4.77 0 0 1-1.74 1.15z" fill="#f26a75"/><path d="M624 467h-40.34a2.1 2.1 0 0 0-2.16 2v29.36h44.63V469a2.1 2.1 0 0 0-2.13-2z" fill="#fff"/></svg>