<svg xmlns="http://www.w3.org/2000/svg" xmlns:xlink="http://www.w3.org/1999/xlink" viewBox="0 0 449 372"><defs><clipPath id="clip-path"><path d="M87.51,325.066l-1.871-.935c-1.972-.986-48.306-24.7-48.306-72.728V214.315l3.59-.513c27.289-3.9,43.309-21.454,43.463-21.625l3.116-3.49,3.131,3.49c.154.171,16.174,17.727,43.463,21.625l3.59.513V251.4c0,48.025-46.334,71.742-48.306,72.728Z" fill="none"/></clipPath></defs><g id="Artwork"><path d="M372.055,167.772a74.306,74.306,0,0,0-15.048,1.533,128.712,128.712,0,0,0-251.67-34.2A90.979,90.979,0,1,0,90,315.8v0H372.055a74.018,74.018,0,0,0,0-148.035Z" fill="none"/><path d="M449,242.64v.161a75.52,75.52,0,0,1-.8,10.836c-.081.5-.161,1.015-.252,1.507a72.017,72.017,0,0,1-2.691,10.836q-.241.755-.512,1.507a72.453,72.453,0,0,1-4.851,10.836q-.421.77-.844,1.507a73.852,73.852,0,0,1-7.653,10.836c-.421.513-.853,1.015-1.305,1.507-.924,1.034-1.878,2.049-2.862,3.033a74.751,74.751,0,0,1-9.17,7.8c-.723.513-1.446,1.025-2.189,1.507a73.636,73.636,0,0,1-25.67,10.836l-.6.121a72.142,72.142,0,0,1-10.8,1.386c-1.366.08-2.752.12-4.138.12H91.4v-.01a91.367,91.367,0,1,1,15.4-181.468,129.291,129.291,0,0,1,245.361-5.293c.181.5.362,1,.533,1.507q1.822,5.317,3.174,10.836.195.753.361,1.507,1.251,5.333,2.039,10.836.12.753.211,1.506.708,5.349.974,10.837.045.753.06,1.506c.02.362.03.734.041,1.095,2.3-.472,4.639-.843,7.019-1.095A74.3,74.3,0,0,1,414.04,179.58c.783.482,1.557.984,2.31,1.506A74.14,74.14,0,0,1,429,191.923c.472.492.924.994,1.366,1.506a74.153,74.153,0,0,1,7.974,10.837c.3.492.593.994.884,1.506a73.023,73.023,0,0,1,5.082,10.837q.286.753.542,1.506a71.008,71.008,0,0,1,2.883,10.837c.1.5.19.994.261,1.506a74.076,74.076,0,0,1,.994,10.837C449,241.737,449,242.188,449,242.64Z" fill="#013581"/><rect x="79.509" y="130.221" width="7.912" height="41.693" fill="#0354db"/><rect x="285.926" y="130.221" width="7.912" height="41.693" fill="#0354db"/><rect x="182.718" y="94.878" width="7.912" height="176.826" transform="translate(3.392 369.976) rotate(-90.003)" fill="#fff" stroke="#0354db" stroke-miterlimit="10" stroke-width="2"/><rect x="87.422" y="122.832" width="198.505" height="56.502" fill="#c5ebf5" stroke="#0354db" stroke-miterlimit="10" stroke-width="2"/><rect x="166.389" y="60.405" width="40.57" height="181.355" transform="translate(337.757 -35.591) rotate(90)" fill="#fff"/><rect x="106.321" y="142.253" width="4.394" height="4.394" fill="#0354db"/><rect x="106.321" y="155.479" width="4.394" height="4.394" fill="#0354db"/><rect x="112.339" y="148.51" width="4.394" height="4.394" fill="#0354db"/><rect x="117.688" y="142.253" width="4.394" height="4.394" fill="#0354db"/><rect x="117.688" y="155.479" width="4.394" height="4.394" fill="#0354db"/><rect x="123.372" y="148.51" width="4.394" height="4.394" fill="#0354db"/><rect x="130.094" y="142.253" width="4.394" height="4.394" fill="#0354db"/><rect x="130.094" y="155.479" width="4.394" height="4.394" fill="#0354db"/><rect x="135.778" y="148.51" width="4.394" height="4.394" fill="#0354db"/><rect x="142.691" y="142.253" width="4.394" height="4.394" fill="#0354db"/><rect x="142.691" y="155.479" width="4.394" height="4.394" fill="#0354db"/><rect x="148.04" y="148.51" width="4.394" height="4.394" fill="#0354db"/><rect x="154.058" y="142.253" width="4.394" height="4.394" fill="#0354db"/><rect x="154.058" y="155.479" width="4.394" height="4.394" fill="#0354db"/><rect x="159.073" y="148.51" width="4.394" height="4.394" fill="#0354db"/><rect x="165.425" y="142.253" width="4.394" height="4.394" fill="#0354db"/><rect x="165.425" y="155.479" width="4.394" height="4.394" fill="#0354db"/><rect x="170.106" y="148.51" width="4.394" height="4.394" fill="#0354db"/><circle cx="262.946" cy="151.083" r="5.454" fill="#0354db"/><line x1="247.259" y1="151.083" x2="189.489" y2="151.083" fill="none" stroke="#0354db" stroke-miterlimit="10" stroke-width="2"/><rect x="79.509" y="194.669" width="7.912" height="41.693" fill="#0354db"/><rect x="285.926" y="194.669" width="7.912" height="41.693" fill="#0354db"/><rect x="87.422" y="187.281" width="198.505" height="56.502" fill="#c5ebf5" stroke="#0354db" stroke-miterlimit="10" stroke-width="2"/><rect x="166.389" y="124.854" width="40.57" height="181.355" transform="translate(402.206 28.858) rotate(90)" fill="#fff"/><rect x="182.718" y="159.327" width="7.912" height="176.826" transform="translate(-61.056 434.428) rotate(-90.003)" fill="#fff" stroke="#0354db" stroke-miterlimit="10" stroke-width="2"/><rect x="106.321" y="206.702" width="4.394" height="4.394" fill="#0354db"/><rect x="106.321" y="219.927" width="4.394" height="4.394" fill="#0354db"/><rect x="112.339" y="212.958" width="4.394" height="4.394" fill="#0354db"/><rect x="117.688" y="206.702" width="4.394" height="4.394" fill="#0354db"/><rect x="117.688" y="219.927" width="4.394" height="4.394" fill="#0354db"/><rect x="123.372" y="212.958" width="4.394" height="4.394" fill="#0354db"/><rect x="130.094" y="206.702" width="4.394" height="4.394" fill="#0354db"/><rect x="130.094" y="219.927" width="4.394" height="4.394" fill="#0354db"/><rect x="135.778" y="212.958" width="4.394" height="4.394" fill="#0354db"/><rect x="142.691" y="206.702" width="4.394" height="4.394" fill="#0354db"/><rect x="142.691" y="219.927" width="4.394" height="4.394" fill="#0354db"/><rect x="148.04" y="212.958" width="4.394" height="4.394" fill="#0354db"/><rect x="154.058" y="206.702" width="4.394" height="4.394" fill="#0354db"/><rect x="154.058" y="219.927" width="4.394" height="4.394" fill="#0354db"/><rect x="159.073" y="212.958" width="4.394" height="4.394" fill="#0354db"/><rect x="165.425" y="206.702" width="4.394" height="4.394" fill="#0354db"/><rect x="165.425" y="219.927" width="4.394" height="4.394" fill="#0354db"/><rect x="170.106" y="212.958" width="4.394" height="4.394" fill="#0354db"/><circle cx="262.946" cy="215.531" r="5.454" fill="#0354db"/><line x1="247.259" y1="215.532" x2="189.489" y2="215.532" fill="none" stroke="#0354db" stroke-miterlimit="10" stroke-width="2"/><rect x="79.509" y="258.949" width="7.912" height="41.693" fill="#0354db"/><rect x="285.926" y="258.949" width="7.912" height="41.693" fill="#0354db"/><rect x="182.718" y="223.607" width="7.912" height="176.826" transform="translate(-125.336 498.711) rotate(-90.003)" fill="#fff" stroke="#0354db" stroke-miterlimit="10" stroke-width="2"/><rect x="87.422" y="251.561" width="198.505" height="56.502" fill="#c5ebf5" stroke="#0354db" stroke-miterlimit="10" stroke-width="2"/><rect x="166.389" y="189.135" width="40.57" height="181.355" transform="translate(466.486 93.138) rotate(90)" fill="#fff"/><rect x="106.321" y="270.982" width="4.394" height="4.394" fill="#0354db"/><rect x="106.321" y="284.207" width="4.394" height="4.394" fill="#0354db"/><rect x="112.339" y="277.239" width="4.394" height="4.394" fill="#0354db"/><rect x="117.688" y="270.982" width="4.394" height="4.394" fill="#0354db"/><rect x="117.688" y="284.207" width="4.394" height="4.394" fill="#0354db"/><rect x="123.372" y="277.239" width="4.394" height="4.394" fill="#0354db"/><rect x="130.094" y="270.982" width="4.394" height="4.394" fill="#0354db"/><rect x="130.094" y="284.207" width="4.394" height="4.394" fill="#0354db"/><rect x="135.778" y="277.239" width="4.394" height="4.394" fill="#0354db"/><rect x="142.691" y="270.982" width="4.394" height="4.394" fill="#0354db"/><rect x="142.691" y="284.207" width="4.394" height="4.394" fill="#0354db"/><rect x="148.04" y="277.239" width="4.394" height="4.394" fill="#0354db"/><rect x="154.058" y="270.982" width="4.394" height="4.394" fill="#0354db"/><rect x="154.058" y="284.207" width="4.394" height="4.394" fill="#0354db"/><rect x="159.073" y="277.239" width="4.394" height="4.394" fill="#0354db"/><rect x="165.425" y="270.982" width="4.394" height="4.394" fill="#0354db"/><rect x="165.425" y="284.207" width="4.394" height="4.394" fill="#0354db"/><rect x="170.106" y="277.239" width="4.394" height="4.394" fill="#0354db"/><circle cx="262.946" cy="279.812" r="5.454" fill="#0354db"/><line x1="247.259" y1="279.812" x2="189.489" y2="279.812" fill="none" stroke="#0354db" stroke-miterlimit="10" stroke-width="2"/><path d="M80.549,334.312c-2.231-1.115-54.6-27.938-54.6-82.909v-46.96l13.361-1.909a67.132,67.132,0,0,0,36.651-18.015l11.518-12.9,11.625,12.957a67.123,67.123,0,0,0,36.6,17.958l13.362,1.909V251.4c0,54.978-52.368,81.794-54.6,82.909l-6.96,3.481Z" fill="#c5ebf5" stroke="#0055dc" stroke-miterlimit="10" stroke-width="1.5"/><path d="M87.51,325.066l-1.871-.935c-1.972-.986-48.306-24.7-48.306-72.728V214.315l3.59-.513c27.289-3.9,43.309-21.454,43.463-21.625l3.116-3.49,3.131,3.49c.154.171,16.174,17.727,43.463,21.625l3.59.513V251.4c0,48.025-46.334,71.742-48.306,72.728Z" fill="#fff"/><g clip-path="url(#clip-path)"><line x1="87.502" y1="188.687" x2="87.502" y2="328.741" fill="none" stroke="#f63" stroke-miterlimit="10" stroke-width="1.5"/><line x1="36.195" y1="257.791" x2="140.308" y2="257.791" fill="none" stroke="#fbad41" stroke-miterlimit="10" stroke-width="1.5"/></g><circle cx="87.51" cy="256.877" r="30.089" fill="#fff" stroke="#f63" stroke-miterlimit="10" stroke-width="1.5"/><polygon points="83.128 270.356 71.685 258.399 74.878 255.344 83.18 264.018 100.167 246.842 103.309 249.949 83.128 270.356" fill="#f6821f"/><path d="M418.057,303.009c-.723.513-1.446,1.025-2.189,1.507H287v-1.507Z" fill="#ff6b34"/><path d="M431.394,290.666c-.421.513-.853,1.015-1.305,1.507H293.855v-1.507Z" fill="#fe6f35"/><path d="M439.891,278.323q-.421.77-.844,1.507H293.864v-1.507Z" fill="#fe7436"/><path d="M445.254,265.98q-.241.755-.512,1.507H293.875V265.98Z" fill="#fe7937"/><path d="M448.2,253.637c-.081.5-.161,1.015-.252,1.507h-161v-1.507Z" fill="#fe7e38"/><path d="M449,242.64v.161H286.945V241.3H448.99C449,241.737,449,242.188,449,242.64Z" fill="#fd8239"/><path d="M448,230.458H293.9v-1.506h153.84C447.835,229.454,447.925,229.946,448,230.458Z" fill="#fd873a"/><path d="M444.852,218.115H293.9v-1.506H444.31Q444.6,217.362,444.852,218.115Z" fill="#fd8c3a"/><path d="M439.228,205.772H293.915v-1.506H438.344C438.646,204.758,438.937,205.26,439.228,205.772Z" fill="#fd913b"/><path d="M430.37,193.429H286.925v-1.506H429C429.476,192.415,429.928,192.917,430.37,193.429Z" fill="#fc953c"/><path d="M416.35,181.086H286.925V179.58H414.04C414.823,180.062,415.6,180.564,416.35,181.086Z" fill="#fc9a3d"/><path d="M359.446,167.237q.045.753.06,1.506H293.835v-1.506Z" fill="#fc9f3e"/><path d="M358.472,156.4H293.845v-1.506h64.416Q358.381,155.647,358.472,156.4Z" fill="#fca43f"/><path d="M356.222,144.058H293.835v-1.507h62.026Q356.056,143.3,356.222,144.058Z" fill="#fba840"/><path d="M352.687,131.715H293.845v-1.507h58.309C352.335,130.71,352.516,131.212,352.687,131.715Z" fill="#fbad41"/></g></svg>